<svg width="34" height="41" viewBox="0 0 34 41" fill="none" xmlns="http://www.w3.org/2000/svg">
<path fill-rule="evenodd" clip-rule="evenodd" d="M0 17.0157C0 7.81591 7.68776 0.380127 16.9868 0.380127C26.3122 0.380127 34 7.81591 34 17.0157C34 21.6515 32.314 25.9553 29.539 29.6033C26.4776 33.6271 22.7044 37.1331 18.457 39.8849C17.485 40.5209 16.6078 40.5689 15.5408 39.8849C11.2695 37.1331 7.49618 33.6271 4.461 29.6033C1.68396 25.9553 0 21.6515 0 17.0157ZM11.3885 17.5337C11.3885 20.6155 13.9034 23.0395 16.9868 23.0395C20.0724 23.0395 22.6116 20.6155 22.6116 17.5337C22.6116 14.4757 20.0724 11.9338 16.9868 11.9338C13.9034 11.9338 11.3885 14.4757 11.3885 17.5337Z" fill="white"/>
</svg>
