<svg width="16" height="16" viewBox="0 0 16 16" fill="none" xmlns="http://www.w3.org/2000/svg">
<path d="M12.8002 0.200195H3.2002C1.53352 0.200195 0.200195 1.53352 0.200195 3.2002V12.8002C0.200195 14.4669 1.53352 15.8002 3.2002 15.8002H12.8002C14.4669 15.8002 15.8002 14.4669 15.8002 12.8002V3.20019C15.8002 1.53352 14.4669 0.200195 12.8002 0.200195ZM13.6669 2.0002H14.0002V4.66685H11.3335V2.0002H13.6669ZM5.80021 6.40021C6.26687 5.73353 7.13354 5.26686 8.00021 5.26686C8.86688 5.26686 9.73355 5.73353 10.2002 6.40021C10.5335 6.86687 10.7335 7.4002 10.7335 8.0002C10.7335 9.53352 9.46688 10.7335 8.00021 10.7335C6.53354 10.7335 5.26688 9.53354 5.26688 8.0002C5.26687 7.4002 5.46687 6.86687 5.80021 6.40021ZM14.2669 12.8002C14.2669 13.6002 13.6002 14.2669 12.8002 14.2669H3.2002C2.40021 14.2669 1.73353 13.6002 1.73353 12.8002V6.40021H4.06686C3.86686 6.86687 3.73354 7.46687 3.73354 8.0002C3.73354 10.3335 5.66687 12.2669 8.0002 12.2669C10.3335 12.2669 12.2669 10.3335 12.2669 8.0002C12.2669 7.46687 12.1335 6.86685 11.9335 6.40021H14.2669L14.2669 12.8002Z" fill="white"/>
</svg>
