<svg width="32" height="32" viewBox="0 0 32 32" fill="none" xmlns="http://www.w3.org/2000/svg">
<path d="M28.5809 3.44272C27.9139 2.75822 26.9269 2.5032 26.0065 2.77163L4.54433 9.01277C3.57326 9.28256 2.88498 10.057 2.69957 11.0408C2.51015 12.0421 3.17177 13.3131 4.03611 13.8446L10.7469 17.9691C11.4351 18.3919 12.3235 18.2859 12.8931 17.7114L20.5775 9.97915C20.9643 9.5765 21.6046 9.5765 21.9915 9.97915C22.3783 10.3684 22.3783 10.9992 21.9915 11.4019L14.2937 19.1355C13.7227 19.7086 13.6161 20.6011 14.0362 21.2937L18.1366 28.0718C18.6167 28.877 19.4438 29.3334 20.3507 29.3334C20.4575 29.3334 20.5775 29.3334 20.6843 29.3199C21.7247 29.1858 22.5517 28.4745 22.8585 27.4678L29.2211 6.03313C29.5013 5.12045 29.2478 4.12724 28.5809 3.44272Z" fill="white"/>
</svg>
