<svg width="19" height="16" viewBox="0 0 19 16" fill="none" xmlns="http://www.w3.org/2000/svg">
<path d="M18.8003 2.49851C18.1146 2.80255 17.377 3.00819 16.6035 3.10003C17.3933 2.62686 17.9994 1.87817 18.2855 0.984589C17.5465 1.42296 16.7276 1.74098 15.8568 1.91239C15.1592 1.16941 14.1652 0.705078 13.0646 0.705078C10.9529 0.705078 9.24014 2.4178 9.24014 4.52953C9.24014 4.82929 9.27409 5.12106 9.33968 5.40115C6.16125 5.24171 3.34304 3.71923 1.45662 1.40471C1.12749 1.96944 0.938673 2.62686 0.938673 3.32763C0.938673 4.65417 1.61435 5.82526 2.63998 6.51092C2.01336 6.49124 1.42325 6.31925 0.907869 6.03204C0.907584 6.0483 0.907584 6.06456 0.907584 6.08053C0.907584 7.93357 2.22642 9.47915 3.97564 9.83025C3.65506 9.9181 3.31651 9.96459 2.96826 9.96459C2.72127 9.96459 2.48197 9.94092 2.24867 9.89642C2.73524 11.4155 4.14734 12.5213 5.82127 12.5523C4.51213 13.5783 2.8633 14.1895 1.07101 14.1895C0.76298 14.1895 0.4578 14.1715 0.15918 14.1359C1.85079 15.2214 3.86156 15.8543 6.02121 15.8543C13.0558 15.8543 16.9027 10.0268 16.9027 4.97247C16.9027 4.80676 16.899 4.64162 16.8916 4.4779C17.6394 3.93885 18.2877 3.26546 18.8003 2.49851Z" fill="#F1F2F2"/>
</svg>
