<svg width="28" height="26" viewBox="0 0 28 26" fill="none" xmlns="http://www.w3.org/2000/svg">
<path fill-rule="evenodd" clip-rule="evenodd" d="M10.667 13.7382C14.3398 13.7382 17.2838 10.7561 17.2838 7.03571C17.2838 3.31543 14.3398 0.333252 10.667 0.333252C6.99423 0.333252 4.05015 3.31543 4.05015 7.03571C4.05015 10.7561 6.99423 13.7382 10.667 13.7382ZM10.667 17.0202C5.27262 17.0202 0.666992 17.8827 0.666992 21.3285C0.666992 24.773 5.24459 25.6666 10.667 25.6666C16.0601 25.6666 20.667 24.8041 20.667 21.3582C20.667 17.9125 16.0894 17.0202 10.667 17.0202ZM24.5309 9.78373H26.135C26.7953 9.78373 27.3337 10.3297 27.3337 10.9993C27.3337 11.6687 26.7953 12.2147 26.135 12.2147H24.5309V13.7845C24.5309 14.4541 23.9939 14.9999 23.3323 14.9999C22.6721 14.9999 22.1337 14.4541 22.1337 13.7845V12.2147H20.5323C19.8706 12.2147 19.3337 11.6687 19.3337 10.9993C19.3337 10.3297 19.8706 9.78373 20.5323 9.78373H22.1337V8.21541C22.1337 7.54585 22.6721 6.99992 23.3323 6.99992C23.9939 6.99992 24.5309 7.54585 24.5309 8.21541V9.78373Z" fill="white"/>
</svg>
