<svg width="103" height="32" viewBox="0 0 103 32" fill="none" xmlns="http://www.w3.org/2000/svg">
<path d="M54.3375 8.04048C54.3375 9.19374 53.4083 10.1224 52.255 10.1224C51.1018 10.1224 50.1731 9.19374 50.1731 8.04048C50.1731 6.88723 51.0701 5.9586 52.255 5.9586C53.4409 5.9906 54.3375 6.91955 54.3375 8.04048ZM45.7527 12.2369V12.7495C45.7527 12.7495 44.7601 11.4676 42.6459 11.4676C39.1548 11.4676 36.4316 14.1264 36.4316 17.8099C36.4316 21.4617 39.1228 24.1522 42.6459 24.1522C44.7921 24.1522 45.7527 22.8389 45.7527 22.8389V23.3832C45.7527 23.6395 45.9454 23.8312 46.2014 23.8312H48.7956V11.787H46.2014C45.9454 11.7879 45.7527 12.0126 45.7527 12.2369ZM45.7527 19.9561C45.2728 20.661 44.3115 21.2697 43.1586 21.2697C41.1087 21.2697 39.5388 19.9884 39.5388 17.8099C39.5388 15.6317 41.1087 14.3504 43.1586 14.3504C44.2798 14.3504 45.3048 14.9911 45.7527 15.6637V19.9561ZM50.7178 11.7879H53.7926V23.8322H50.7178V11.7879ZM96.6512 11.4673C94.537 11.4673 93.5438 12.7492 93.5438 12.7492V5.9906H90.469V23.8322H93.0638C93.3201 23.8322 93.5118 23.6078 93.5118 23.3835V22.8392C93.5118 22.8392 94.505 24.1525 96.6186 24.1525C100.11 24.1525 102.833 21.4626 102.833 17.8108C102.833 14.1591 100.11 11.4673 96.6512 11.4673ZM96.1386 21.2373C94.953 21.2373 94.0244 20.6293 93.5438 19.9241V15.6317C94.0244 14.9911 95.0493 14.3184 96.1386 14.3184C98.1885 14.3184 99.758 15.5997 99.758 17.7779C99.758 19.9561 98.1888 21.2373 96.1386 21.2373ZM88.8677 16.6893V23.8642H85.7923V17.0413C85.7923 15.0557 85.1516 14.2544 83.423 14.2544C82.4944 14.2544 81.5331 14.7351 80.9235 15.44V23.8325H77.8494V11.7882H80.2829C80.5392 11.7882 80.7316 12.0126 80.7316 12.2369V12.7495C81.6285 11.8202 82.8134 11.4676 83.9984 11.4676C85.3439 11.4676 86.4652 11.8526 87.3621 12.6212C88.4508 13.5181 88.8677 14.6711 88.8677 16.6893ZM70.3849 11.4673C68.2713 11.4673 67.2781 12.7492 67.2781 12.7492V5.9906H64.2033V23.8322H66.7974C67.0538 23.8322 67.2461 23.6078 67.2461 23.3835V22.8392C67.2461 22.8392 68.2393 24.1525 70.3529 24.1525C73.8447 24.1525 76.5672 21.4626 76.5672 17.8108C76.5992 14.1588 73.8767 11.4673 70.3849 11.4673ZM69.8723 21.2373C68.6873 21.2373 67.7587 20.6293 67.2781 19.9241V15.6317C67.7587 14.9911 68.7836 14.3184 69.8723 14.3184C71.9228 14.3184 73.492 15.5997 73.492 17.7779C73.492 19.9561 71.9228 21.2373 69.8723 21.2373ZM61.5444 11.4673C62.473 11.4673 62.9537 11.6279 62.9537 11.6279V14.4784C62.9537 14.4784 60.3912 13.6135 58.7899 15.4397V23.8638H55.7145V11.7879H58.3093C58.5656 11.7879 58.7573 12.0122 58.7573 12.2366V12.7492C59.3345 12.0762 60.5838 11.4673 61.5444 11.4673ZM29.6094 22.7429C29.4494 22.3586 29.2891 21.9423 29.1291 21.5897C28.8724 21.0133 28.6161 20.4684 28.3925 19.9561L28.3605 19.9241C26.1499 15.1191 23.7801 10.2507 21.2812 5.4463L21.1852 5.25365C20.9224 4.75525 20.6663 4.25336 20.4169 3.74809C20.0963 3.17114 19.7763 2.56315 19.2637 1.9862C18.2387 0.704946 16.7652 0 15.1959 0C13.594 0 12.1528 0.70495 11.0962 1.92189C10.6155 2.49819 10.2629 3.10683 9.94291 3.68377C9.69292 4.18872 9.4368 4.69061 9.1746 5.18934L9.07829 5.38197C6.61178 10.1864 4.20958 15.0551 1.99939 19.8598L1.96707 19.9234C1.74308 20.4367 1.48644 20.981 1.23013 21.557C1.07013 21.9096 0.910132 22.294 0.750136 22.7103C0.333504 23.8952 0.20518 25.0165 0.365817 26.17C0.71813 28.5726 2.31938 30.5898 4.52989 31.4874C5.36284 31.84 6.22778 32 7.1244 32C7.38072 32 7.70072 31.968 7.95735 31.9357C9.01461 31.8077 10.1035 31.4557 11.1608 30.8471C12.4741 30.1101 13.7233 29.0535 15.1326 27.5159C16.5418 29.0535 17.8231 30.1101 19.1043 30.8471C20.1619 31.4557 21.2505 31.8077 22.3075 31.9357C22.5638 31.9683 22.8844 32 23.1407 32C24.0377 32 24.9343 31.84 25.7349 31.4874C27.9774 30.5898 29.5467 28.5406 29.8993 26.17C30.1537 25.0491 30.0257 23.9285 29.6094 22.7429ZM15.1636 24.4085C13.4337 22.2303 12.3125 20.1804 11.9285 18.4512C11.7685 17.7142 11.7362 17.0736 11.8325 16.497C11.8961 15.9843 12.0888 15.5357 12.3451 15.1514C12.9537 14.2871 13.9787 13.7421 15.1639 13.7421C16.3495 13.7421 17.4064 14.2548 17.9831 15.1514C18.2394 15.5357 18.4314 15.9846 18.496 16.497C18.5917 17.0739 18.5597 17.7462 18.3997 18.4512C18.0141 20.1484 16.8928 22.1986 15.1636 24.4085ZM27.9435 25.914C27.7195 27.5796 26.5982 29.0215 25.029 29.6621C24.2604 29.9821 23.4271 30.0784 22.5948 29.9821C21.7942 29.8858 20.9929 29.6295 20.1606 29.1495C19.0074 28.5082 17.8544 27.5159 16.5089 26.042C18.6227 23.4478 19.904 21.077 20.3846 18.9635C20.6089 17.9702 20.6413 17.0736 20.5446 16.2403C20.4169 15.4397 20.1283 14.7027 19.68 14.0621C18.6864 12.6202 17.0205 11.7879 15.1633 11.7879C13.306 11.7879 11.6402 12.6529 10.6472 14.0621C10.1989 14.7027 9.91026 15.4397 9.78227 16.2403C9.65427 17.0736 9.68595 18.0022 9.94226 18.9635C10.4226 21.077 11.7358 23.4795 13.8177 26.074C12.5045 27.5476 11.3192 28.5409 10.1659 29.1815C9.333 29.6621 8.5327 29.9184 7.73207 30.0141C6.86745 30.1104 6.03419 29.9821 5.29756 29.6941C3.72831 29.0535 2.60706 27.6116 2.38306 25.946C2.28706 25.1454 2.35074 24.3448 2.67138 23.4478C2.76705 23.1272 2.92769 22.8072 3.08769 22.4229C3.312 21.9103 3.56768 21.3653 3.82431 20.821L3.85664 20.7573C6.06651 15.9843 8.4367 11.1156 10.9032 6.37523L10.9992 6.1826C11.2558 5.70261 11.5122 5.18998 11.7682 4.70935C12.0245 4.19672 12.3125 3.71609 12.6651 3.29945C13.3377 2.53147 14.2343 2.11452 15.2276 2.11452C16.2209 2.11452 17.1175 2.53147 17.7901 3.29945C18.1427 3.71705 18.4307 4.19768 18.687 4.70935C18.9437 5.18998 19.2 5.70261 19.4557 6.1826L19.552 6.37523C21.9809 11.1353 24.3196 15.9409 26.5669 20.7893V20.8213C26.8235 21.3346 27.0475 21.9106 27.3038 22.4239C27.4638 22.8075 27.6241 23.1275 27.7201 23.4482C27.9758 24.2802 28.0718 25.0814 27.9435 25.914Z" fill="#191825" fill-opacity="0.5"/>
</svg>
