<svg width="174" height="32" viewBox="0 0 174 32" fill="none" xmlns="http://www.w3.org/2000/svg">
<path d="M100.241 31.141L113.545 1.03261C113.756 0.575727 113.509 0.18281 112.997 0.18281H103.677C103.404 0.198309 103.14 0.285992 102.912 0.4369C102.684 0.587809 102.5 0.796533 102.379 1.04174L89.2394 31.141C89.0476 31.607 89.2943 31.9908 89.7968 31.9908H98.9436C99.4553 31.9908 100.04 31.607 100.241 31.141ZM147.949 23.036L168.6 0.191948H144.449L138.985 8.99146H148.46L127.471 31.9999H153.029L162.55 23.036H147.949ZM59.5696 0.18281H43.5788C43.1048 0.210282 42.6464 0.362492 42.2501 0.624037C41.8537 0.885583 41.5335 1.24718 41.3219 1.67224L28.7394 30.5105C28.3739 31.3329 28.8216 31.9999 29.7171 31.9999H37.6394C38.5349 31.9999 39.5583 31.3329 39.9055 30.5197L43.4966 22.3415H47.2156C48.3761 22.2684 48.8695 22.6979 48.2299 24.0411L45.4703 30.5105C45.1231 31.3329 45.5617 31.9999 46.4572 31.9999H54.3795C54.8554 31.975 55.3161 31.8239 55.7143 31.5621C56.1125 31.3004 56.4339 30.9375 56.6456 30.5105L60.2458 22.1862C61.3789 19.4814 59.7433 17.3889 57.3675 17.2793C59.4691 16.5208 61.4063 14.4283 62.2744 12.5277L64.1385 8.14166C66.3863 3.04288 64.7872 0.118847 59.5696 0.191948M54.9095 9.28386L52.9357 13.6242C52.4789 14.6659 51.821 14.7481 51.1631 14.7207H46.713L49.6919 7.95891H53.9592C55.0008 8.02287 55.2658 8.39752 54.9095 9.28386ZM90.6923 0.173672H73.7512C73.4119 0.191354 73.0834 0.2988 72.7992 0.485029C72.5151 0.671259 72.2855 0.929594 72.1339 1.23363L59.1676 30.9308C58.9209 31.5156 59.2224 31.9817 59.8621 31.9817H78.0002C83.7477 31.8994 87.0464 30.6293 89.6689 24.5437L91.533 20.4866C92.995 17.0143 91.5604 15.5066 88.8191 15.068C91.1035 14.3644 92.8214 12.217 93.5615 10.3255L95.0784 7.10911C96.9424 2.81444 95.3891 0.118847 90.6832 0.173672M82.3771 20.0936L81.2258 22.4055C80.6501 24.0137 79.645 24.4523 78.2286 24.4706H72.9288L75.4691 18.4854H80.7689C82.2674 18.5951 82.8523 18.9606 82.3771 20.0936ZM85.4199 9.4392L84.625 11.2667L84.5062 11.5043C84.3742 11.8855 84.1198 12.2124 83.7826 12.4338C83.4454 12.6553 83.0444 12.759 82.6421 12.7287H78.0459L80.1475 7.88581H84.8351C85.6758 7.94064 85.8128 8.48889 85.4199 9.4392ZM116.479 0.18281L112.54 8.99146H118.16C118.544 8.99146 118.726 9.26559 118.571 9.62195L108.748 31.3694C108.584 31.7167 108.776 31.9999 109.159 31.9999H119.165C119.549 31.9999 119.987 31.7167 120.143 31.3603L129.573 9.62195C129.663 9.43911 129.8 9.28353 129.971 9.17115C130.141 9.05876 130.338 8.9936 130.541 8.98232H136.307L141.735 0.18281H116.479ZM33.4635 11.02L34.7062 8.30614C37.2099 2.586 35.556 0.127984 30.64 0.191948H18.8068C13.9365 0.127984 9.87937 2.86926 7.63152 7.96805L3.97647 18.2935H0.522461L7.12895 27.2118L18.0484 18.2935H15.2706L18.4779 10.8464C18.9987 9.62195 19.8942 9.03715 20.8536 8.99146H22.7177C23.1563 9.00974 23.4578 9.1468 23.6315 9.33869L29.4247 4.46835L33.4635 11.02Z" fill="#191825" fill-opacity="0.5"/>
<path d="M6.88232 29.8344L2.02112 23.6757L1.76526 24.2239C-0.491725 29.3593 -0.117083 31.9178 4.75326 31.9909H16.4311C21.2649 31.9178 25.4956 29.3593 27.7617 24.2239L31.234 16.2651H34.3408L29.041 7.33765L18.2129 16.2651H21.1827L18.9896 21.3365C18.4597 22.4147 17.6556 22.9995 16.7966 23.036H15.2432L6.88232 29.8344Z" fill="#191825" fill-opacity="0.5"/>
<path d="M172.447 0.000121574C172.876 0.000121574 173.242 0.155461 173.543 0.457002C173.845 0.758543 174 1.12405 174 1.55351C174 1.97384 173.845 2.33935 173.543 2.65003C173.242 2.96071 172.876 3.10691 172.447 3.10691C172.243 3.11005 172.04 3.07111 171.851 2.99251C171.663 2.91391 171.492 2.79733 171.35 2.65003C171.049 2.33935 170.894 1.97384 170.894 1.55351C170.894 1.13318 171.049 0.749405 171.35 0.457002C171.492 0.310133 171.663 0.193842 171.851 0.115274C172.04 0.0367063 172.243 -0.00248031 172.447 0.000121574ZM172.447 2.8145C172.615 2.81829 172.781 2.78783 172.937 2.72499C173.092 2.66214 173.234 2.56823 173.352 2.449C173.471 2.33132 173.565 2.19028 173.628 2.03467C173.691 1.87905 173.721 1.71216 173.717 1.54438C173.72 1.37812 173.689 1.21297 173.626 1.05902C173.564 0.905057 173.47 0.765513 173.352 0.648891C173.234 0.52922 173.093 0.435021 172.937 0.372144C172.782 0.309268 172.615 0.279057 172.447 0.283387C172.281 0.279772 172.115 0.310346 171.961 0.373218C171.807 0.436089 171.668 0.529918 171.551 0.648891C171.305 0.895607 171.186 1.19715 171.186 1.54438C171.186 1.89161 171.305 2.20228 171.551 2.449C171.798 2.69571 172.1 2.8145 172.447 2.8145ZM173.242 2.3759H172.876L172.42 1.71799H172.228V2.3759H171.899V0.703717H172.42C172.602 0.703717 172.748 0.749405 172.858 0.831644C172.968 0.92302 173.032 1.04181 173.032 1.19715C173.032 1.39818 172.922 1.55351 172.712 1.63575L173.242 2.3759ZM172.237 1.44386H172.41C172.621 1.44386 172.721 1.36162 172.721 1.20629C172.721 1.05095 172.63 0.977845 172.42 0.977845H172.237V1.44386Z" fill="#191825" fill-opacity="0.5"/>
</svg>
