<svg width="212" height="32" viewBox="0 0 212 32" fill="none" xmlns="http://www.w3.org/2000/svg">
<path d="M22.8006 19.2268C24.6223 24.1623 30.1129 26.6887 35.0499 24.8713C39.984 23.0411 42.5161 17.5562 40.6873 12.6192C38.8642 7.67656 33.3821 5.1544 28.4381 6.97612C23.4982 8.80489 20.9761 14.287 22.8006 19.2268Z" fill="white"/>
<path d="M10.6083 25.4219C15.8743 25.4219 20.1433 21.1529 20.1433 15.8868C20.1433 10.6208 15.8743 6.35181 10.6083 6.35181C5.34222 6.35181 1.07324 10.6208 1.07324 15.8868C1.07324 21.1529 5.34222 25.4219 10.6083 25.4219Z" fill="white"/>
<path d="M12.2338 15.7853C12.2338 16.7569 11.4444 17.5534 10.4728 17.5534C9.49698 17.5534 8.70898 16.7583 8.70898 15.7853C8.70898 14.8151 9.49698 14.0286 10.4728 14.0286C11.4444 14.03 12.2338 14.8151 12.2338 15.7853Z" fill="#191825" fill-opacity="0.5"/>
<path d="M33.4829 15.7853C33.4829 16.7569 32.6963 17.5534 31.7248 17.5534C30.7461 17.5534 29.9609 16.7583 29.9609 15.7853C29.9609 14.8151 30.7461 14.0286 31.7248 14.0286C32.6977 14.03 33.4829 14.8151 33.4829 15.7853Z" fill="#191825" fill-opacity="0.5"/>
<path d="M5.2334 15.7854C5.2334 18.6761 7.58468 21.0231 10.4754 21.0231C13.3591 21.0231 15.7089 18.6761 15.7089 15.7854C15.7089 12.9017 13.3577 10.5532 10.4754 10.5532C7.58609 10.556 5.2334 12.9031 5.2334 15.7854ZM7.03958 15.7854C7.03958 13.8944 8.5845 12.3566 10.4782 12.3566C12.3691 12.3566 13.9056 13.8987 13.9056 15.7854C13.9056 17.6819 12.3691 19.2226 10.4782 19.2226C8.5845 19.224 7.03958 17.6847 7.03958 15.7854Z" fill="#191825" fill-opacity="0.5"/>
<path d="M26.4854 15.7854C26.4854 18.6761 28.8338 21.0231 31.7231 21.0231C34.6082 21.0231 36.9553 18.6761 36.9553 15.7854C36.9553 12.9017 34.6082 10.5532 31.7231 10.5532C28.8352 10.556 26.4854 12.9031 26.4854 15.7854ZM28.2915 15.7854C28.2915 13.8944 29.8322 12.3566 31.7274 12.3566C33.6183 12.3566 35.1533 13.8987 35.1533 15.7854C35.1533 17.6819 33.6183 19.2226 31.7274 19.2226C29.8294 19.224 28.2915 17.6847 28.2915 15.7854Z" fill="#191825" fill-opacity="0.5"/>
<path d="M28.0715 5.97191C29.1758 5.5652 30.3056 5.36749 31.4212 5.33643C28.3822 3.9765 24.9421 3.28735 21.1306 3.28735C17.3488 3.28735 13.8579 3.99203 10.8203 5.29124C16.3179 5.39997 20.7875 9.70571 21.173 15.1327C21.2662 13.8872 21.5712 12.6558 22.1093 11.4893C23.2941 8.90924 25.4138 6.95196 28.0715 5.97191Z" fill="white"/>
<path d="M40.2697 9.6225C40.7668 7.49434 42.3442 5.36477 42.3442 5.36477L35.265 5.36054C31.2953 2.79743 26.4741 1.4375 21.1333 1.4375C15.5891 1.4375 10.5829 2.82991 6.63583 5.41137L0 5.41702C0 5.41702 1.55905 7.52258 2.06319 9.63521C0.772462 11.3905 0.00564872 13.5469 0.00564872 15.8883C0.00564872 21.7334 4.76328 26.4882 10.6111 26.4882C13.9538 26.4882 16.9349 24.9305 18.8794 22.5101L21.1375 25.8908L23.4125 22.4804C24.4364 23.7824 25.7568 24.8387 27.3045 25.5547C29.8789 26.7381 32.764 26.8553 35.4203 25.8739C40.9066 23.8446 43.7239 17.7284 41.6946 12.2492C41.3387 11.2846 40.853 10.4077 40.2697 9.6225ZM21.1319 3.28887C24.9433 3.28887 28.3834 3.97801 31.4224 5.33935C30.3054 5.36901 29.1771 5.56813 28.0727 5.97201C25.415 6.95206 23.2953 8.90935 22.1133 11.4852C21.5753 12.6516 21.2717 13.883 21.1771 15.1286C20.7887 9.7044 16.3192 5.39866 10.8215 5.2871C13.8577 3.99213 17.3472 3.28887 21.1319 3.28887ZM17.6184 20.6248C16.096 22.8702 13.5202 24.3501 10.6083 24.3501C5.93963 24.3501 2.14087 20.5485 2.14087 15.8898C2.14087 11.2183 5.94104 7.42373 10.6083 7.42373C15.2756 7.42373 19.0743 11.2183 19.0743 15.8898C19.0743 16.175 19.0192 16.4433 18.9896 16.7187C18.8484 18.1492 18.388 19.4894 17.6184 20.6248ZM34.6789 23.8672C32.5578 24.6467 30.2574 24.5605 28.2026 23.613C26.7453 22.9379 25.552 21.8802 24.692 20.5669C24.3417 20.0359 24.0339 19.4725 23.8065 18.8553C23.5481 18.1577 23.4196 17.4389 23.3504 16.7145C23.2092 15.2458 23.4224 13.7602 24.0551 12.3833C25.0041 10.3286 26.693 8.7653 28.8141 7.98013C33.1947 6.3646 38.071 8.61138 39.6893 12.9905C41.3063 17.3697 39.0581 22.246 34.6789 23.8672Z" fill="#191825" fill-opacity="0.5"/>
<path d="M54.8517 2.98674L51.7477 4.05859C51.7477 4.05859 51.7477 7.77545 51.7477 8.10872C51.4229 8.10872 48.3076 8.10872 48.3076 8.10872V10.8243C48.3076 10.8243 51.3269 10.8243 51.6545 10.8243C51.6545 11.1774 51.6545 19.5431 51.6545 19.5431C51.6545 23.6865 53.0653 25.3867 56.535 25.3867C57.4148 25.3867 58.255 25.278 59.0981 25.0478L59.2351 25.0139L59.1969 22.198L58.9597 22.2884C58.2776 22.5243 57.7438 22.6401 57.3314 22.6401C55.7018 22.6401 55.0974 21.7235 55.0974 19.2494C55.0974 19.2494 55.0974 11.176 55.0974 10.8286C55.4278 10.8286 59.067 10.8286 59.067 10.8286V8.10872C59.067 8.10872 55.4292 8.10872 55.0974 8.10872C55.0974 7.77262 55.0974 2.90625 55.0974 2.90625L54.8517 2.98674Z" fill="#191825" fill-opacity="0.5"/>
<path d="M65.5847 10.8596C65.5847 9.9035 65.5847 8.10862 65.5847 8.10862H62.4355V25.0873H65.8784V16.5648C65.8784 12.9919 67.3796 11.0234 70.0994 11.0234C70.4934 11.0234 70.8761 11.0827 71.3422 11.214L71.5653 11.2776L71.6783 7.92645L70.1969 7.81348C68.2015 7.81207 66.5902 8.88956 65.5847 10.8596Z" fill="#191825" fill-opacity="0.5"/>
<path d="M77.8143 8.1072H74.555V25.0872H77.9978V8.1072H77.8143ZM74.2217 3.13209C74.2217 4.26183 75.1424 5.17834 76.2693 5.17834C77.3991 5.17834 78.317 4.26183 78.317 3.13209C78.317 2.00376 77.3991 1.08301 76.2693 1.08301C75.1424 1.08019 74.2217 2.00376 74.2217 3.13209Z" fill="#191825" fill-opacity="0.5"/>
<path d="M90.1568 7.70898C87.7943 7.70898 85.8073 8.82743 84.4827 10.8624C84.4827 10.049 84.4827 8.10439 84.4827 8.10439H81.335V31.9999H84.7807C84.7807 31.9999 84.7807 23.6553 84.7807 22.7374C86.0234 24.4278 87.8056 25.357 90.0241 25.357C94.3764 25.357 97.1881 21.7856 97.1881 16.271C97.1881 11.1505 94.3609 7.70898 90.1568 7.70898ZM89.1952 22.5722C86.4711 22.5722 84.7793 20.2435 84.7793 16.5026C84.7793 12.8917 86.5643 10.5588 89.3265 10.5588C91.9884 10.5588 93.58 12.7702 93.58 16.4673C93.5814 20.2308 91.8995 22.5722 89.1952 22.5722Z" fill="#191825" fill-opacity="0.5"/>
<path d="M107.251 7.70898C105.145 7.70898 103.301 8.10722 101.609 8.92063L101.505 8.97147L101.541 11.9102L101.813 11.7577C103.43 10.8539 104.96 10.3921 106.354 10.3921C108.848 10.3921 110.28 11.8213 110.28 14.3194C110.28 14.3194 110.28 14.3914 110.28 14.4649C109.976 14.4649 108.31 14.4649 108.31 14.4649C102.642 14.4649 99.5234 16.5182 99.5234 20.2407C99.5234 23.2303 101.774 25.3203 104.997 25.3203C107.368 25.3203 109.203 24.3882 110.51 22.6343C110.51 23.3164 110.51 25.0859 110.51 25.0859H113.621V14.8108C113.62 10.1012 111.478 7.70898 107.251 7.70898ZM110.274 17.919C110.274 20.8437 108.515 22.736 105.792 22.736C104.124 22.736 102.961 21.6401 102.961 20.0726C102.961 18.0122 104.931 16.8811 108.506 16.8811C108.506 16.8811 109.979 16.8811 110.277 16.8811C110.274 17.1452 110.274 17.919 110.274 17.919Z" fill="#191825" fill-opacity="0.5"/>
<path d="M128.243 0C128.243 0 128.243 9.46584 128.243 10.412C126.973 8.64678 125.206 7.71192 122.937 7.71192C118.725 7.71192 115.895 11.1802 115.895 16.3347C115.895 21.6445 118.765 25.3529 122.868 25.3529C125.298 25.3529 127.193 24.2768 128.507 22.1853C128.507 23.0312 128.507 25.0888 128.507 25.0888H131.69V0H128.243ZM123.76 22.5031C121.137 22.5031 119.507 20.2154 119.507 16.5324C119.507 12.8452 121.151 10.4614 123.698 10.4614C126.542 10.4614 128.24 12.7294 128.24 16.5324C128.243 20.1659 126.489 22.5031 123.76 22.5031Z" fill="#191825" fill-opacity="0.5"/>
<path d="M147.074 8.10742L142.192 17.9122L137.679 8.10742H133.8L142.12 25.0875L150.667 8.10742H147.074Z" fill="#191825" fill-opacity="0.5"/>
<path d="M155.68 8.1072H152.419V25.0872H155.866V8.1072H155.68ZM152.09 3.13209C152.09 4.26183 153.009 5.17834 154.138 5.17834C155.271 5.17834 156.185 4.26183 156.185 3.13209C156.185 2.00376 155.269 1.08301 154.138 1.08301C153.011 1.08019 152.09 2.00376 152.09 3.13209Z" fill="#191825" fill-opacity="0.5"/>
<path d="M159.902 12.4611C159.902 14.849 161.543 16.1073 164.574 17.5901C166.485 18.5292 167.483 19.0828 167.483 20.406C167.483 21.7631 166.257 22.64 164.354 22.64C163.008 22.64 161.514 22.2616 160.034 21.5343L159.782 21.41L159.671 24.4039L159.785 24.4462C161.2 25.0097 162.687 25.2851 164.224 25.2851C168.435 25.2851 171.153 23.2784 171.153 20.173C171.153 17.5844 169.432 16.2697 166.448 14.8773C164.263 13.8506 163.347 13.2533 163.347 12.1645C163.347 11.1336 164.366 10.4614 165.942 10.4614C167.366 10.4614 168.755 10.7777 170.07 11.4047L170.319 11.5191L170.468 8.59027L170.331 8.55072C168.905 8.12707 167.497 7.91383 166.142 7.91383C162.411 7.90818 159.902 9.73837 159.902 12.4611Z" fill="#191825" fill-opacity="0.5"/>
<path d="M181.897 7.70898C176.722 7.70898 173.51 11.1166 173.51 16.5958C173.51 22.0779 176.725 25.4799 181.897 25.4799C187.095 25.4799 190.322 22.0765 190.322 16.5958C190.322 11.118 187.092 7.70898 181.897 7.70898ZM181.926 22.671C179.067 22.671 177.146 20.2167 177.146 16.5634C177.146 12.8903 179.067 10.4274 181.926 10.4274C184.833 10.4274 186.709 12.838 186.709 16.5634C186.709 20.2746 184.835 22.671 181.926 22.671Z" fill="#191825" fill-opacity="0.5"/>
<path d="M196.673 10.8596C196.673 9.9035 196.673 8.10862 196.673 8.10862H193.523V25.0873H196.966V16.5648C196.966 12.9919 198.459 11.0234 201.183 11.0234C201.574 11.0234 201.954 11.0827 202.412 11.214L202.645 11.2776L202.752 7.92645L201.276 7.81348C199.289 7.81207 197.681 8.88956 196.673 10.8596Z" fill="#191825" fill-opacity="0.5"/>
<path d="M210.966 7.35592C211.53 7.92785 211.827 8.68761 211.827 9.50526C211.827 10.3596 211.508 11.125 210.92 11.6885C210.308 12.2703 209.548 12.5824 208.754 12.5824C207.925 12.5824 207.163 12.2562 206.569 11.6433C206.003 11.0558 205.683 10.3046 205.683 9.50243C205.683 8.68478 206.009 7.89255 206.619 7.29096C207.191 6.73032 207.927 6.42529 208.754 6.42529C209.603 6.42671 210.375 6.74868 210.966 7.35592ZM207 7.69343C206.503 8.19052 206.238 8.83024 206.238 9.50526C206.238 10.1633 206.483 10.7692 206.958 11.2521C207.434 11.7492 208.065 12.0175 208.741 12.0175C209.399 12.0175 210.032 11.7647 210.521 11.2903C211.001 10.8285 211.265 10.1958 211.265 9.50385C211.265 8.82741 211.019 8.21311 210.553 7.74286C210.065 7.24577 209.445 6.98452 208.754 6.98452C208.073 6.98452 207.476 7.22741 207 7.69343ZM208.811 7.75133C209.774 7.75133 210.268 8.10014 210.268 8.73138C210.268 9.16633 210.01 9.50385 209.551 9.64224L210.307 11.1236H209.282L208.651 9.78628H208.384V11.1236H207.455V7.74992L208.811 7.75133ZM208.377 9.23694H208.7C209.114 9.23694 209.313 9.09149 209.313 8.80199C209.313 8.47154 209.104 8.33597 208.651 8.33597H208.377V9.23694Z" fill="#191825" fill-opacity="0.5"/>
</svg>
